<svg xmlns="http://www.w3.org/2000/svg" style="display:none">
  <symbol id="icon-moon" viewBox="0 0 24 24">
    <path fill="none" stroke="currentColor" stroke-linecap="round" stroke-linejoin="round" stroke-width="2"
          d="M12 3a6 6 0 0 0 9 9a9 9 0 1 1-9-9"/>
  </symbol>

  <symbol id="icon-sun" viewBox="0 0 24 24">
    <g fill="none" stroke="currentColor" stroke-linecap="round" stroke-linejoin="round" stroke-width="2">
      <circle cx="12" cy="12" r="4"/>
      <path d="M12 2v2m0 16v2M4.93 4.93l1.41 1.41m11.32 11.32l1.41 1.41M2 12h2m16 0h2M6.34 17.66l-1.41 1.41M19.07 4.93l-1.41 1.41"/>
    </g>
  </symbol>

  <symbol id="icon-cart" viewBox="0 0 24 24">
    <g fill="none" stroke="currentColor" stroke-linecap="round" stroke-linejoin="round" stroke-width="2">
      <circle cx="8" cy="21" r="1"/>
      <circle cx="19" cy="21" r="1"/>
      <path d="M2.05 2.05h2l2.66 12.42a2 2 0 0 0 2 1.58h9.78a2 2 0 0 0 1.95-1.57l1.65-7.43H5.12"/>
    </g>
  </symbol>

  <symbol id="icon-search" viewBox="0 0 24 24">
    <g fill="none" stroke="currentColor" stroke-linecap="round" stroke-linejoin="round" stroke-width="2">
      <circle cx="11" cy="11" r="8"/>
      <path d="m21 21l-4.3-4.3"/>
    </g>
  </symbol>

  <symbol id="icon-heart" viewBox="0 0 24 24">
    <path fill="none" stroke="currentColor" stroke-linecap="round" stroke-linejoin="round" stroke-width="2"
          d="M19 14c1.49-1.46 3-3.21 3-5.5A5.5 5.5 0 0 0 16.5 3c-1.76 0-3 .5-4.5 2c-1.5-1.5-2.74-2-4.5-2A5.5 5.5 0 0 0 2 8.5c0 2.3 1.5 4.05 3 5.5l7 7Z"/>
  </symbol>

  <symbol id="icon-phone" viewBox="0 0 24 24">
    <path fill="none" stroke="currentColor" stroke-linecap="round" stroke-linejoin="round" stroke-width="2"
          d="M22 16.92v3a2 2 0 0 1-2.18 2a19.8 19.8 0 0 1-8.63-3.07a19.5 19.5 0 0 1-6-6a19.8 19.8 0 0 1-3.07-8.67A2 2 0 0 1 4.11 2h3a2 2 0 0 1 2 1.72a12.8 12.8 0 0 0 .7 2.81a2 2 0 0 1-.45 2.11L8.09 9.91a16 16 0 0 0 6 6l1.27-1.27a2 2 0 0 1 2.11-.45a12.8 12.8 0 0 0 2.81.7A2 2 0 0 1 22 16.92"/>
  </symbol>

  <symbol id="icon-user" viewBox="0 0 24 24">
    <g fill="none" stroke="currentColor" stroke-linecap="round" stroke-linejoin="round" stroke-width="2">
      <path d="M19 21v-2a4 4 0 0 0-4-4H9a4 4 0 0 0-4 4v2"/>
      <circle cx="12" cy="7" r="4"/>
    </g>
  </symbol>

  <symbol id="icon-menu" viewBox="0 0 24 24">
    <path fill="none" stroke="currentColor" stroke-linecap="round" stroke-linejoin="round" stroke-width="2"
          d="M4 12h16M4 6h16M4 18h16"/>
  </symbol>

  <symbol id="icon-close" viewBox="0 0 24 24">
    <path fill="none" stroke="currentColor" stroke-linecap="round" stroke-linejoin="round" stroke-width="2"
          d="M18 6L6 18M6 6l12 12"/>
  </symbol>

  <symbol id="icon-chevron-left" viewBox="0 0 24 24">
    <path fill="none" stroke="currentColor" stroke-linecap="round" stroke-linejoin="round" stroke-width="2"
          d="m15 18l-6-6l6-6"/>
  </symbol>

  <symbol id="icon-chevron-right" viewBox="0 0 24 24">
    <path fill="none" stroke="currentColor" stroke-linecap="round" stroke-linejoin="round" stroke-width="2"
          d="m9 18l6-6l-6-6"/>
  </symbol>

  <symbol id="icon-scales" viewBox="0 0 24 24">
    <path fill="none" stroke="currentColor" stroke-linecap="round" stroke-linejoin="round" stroke-width="2"
          d="m16 16l3-8l3 8c-.87.65-1.92 1-3 1s-2.13-.35-3-1M2 16l3-8l3 8c-.87.65-1.92 1-3 1s-2.13-.35-3-1m5 5h10M12 3v18M3 7h2c2 0 5-1 7-2c2 1 5 2 7 2h2"/>
  </symbol>

  <symbol id="icon-grid" viewBox="0 0 24 24">
    <g fill="none" stroke="currentColor" stroke-linecap="round" stroke-linejoin="round" stroke-width="2">
      <rect width="18" height="18" x="3" y="3" rx="2"/>
      <path d="M3 9h18M3 15h18M9 3v18m6-18v18"/>
    </g>
  </symbol>

  <symbol id="icon-list" viewBox="0 0 24 24">
    <g fill="none" stroke="currentColor" stroke-linecap="round" stroke-linejoin="round" stroke-width="2">
      <rect width="7" height="7" x="3" y="3" rx="1"/>
      <rect width="7" height="7" x="3" y="14" rx="1"/>
      <path d="M14 4h7m-7 5h7m-7 6h7m-7 5h7"/>
    </g>
  </symbol>
</svg>
